<svg width="8" height="12" viewBox="0 0 8 12" fill="none" xmlns="http://www.w3.org/2000/svg">
<path d="M6.83019 5.29L2.59019 1.05C2.49722 0.956274 2.38662 0.881879 2.26476 0.83111C2.1429 0.780342 2.0122 0.754204 1.88019 0.754204C1.74818 0.754204 1.61747 0.780342 1.49561 0.83111C1.37375 0.881879 1.26315 0.956274 1.17019 1.05C0.983936 1.23736 0.879395 1.49082 0.879395 1.755C0.879395 2.01919 0.983936 2.27264 1.17019 2.46L4.71019 6L1.17019 9.54C0.983936 9.72736 0.879395 9.98082 0.879395 10.245C0.879395 10.5092 0.983936 10.7626 1.17019 10.95C1.26363 11.0427 1.37444 11.116 1.49628 11.1658C1.61812 11.2155 1.74858 11.2408 1.88019 11.24C2.01179 11.2408 2.14226 11.2155 2.26409 11.1658C2.38593 11.116 2.49675 11.0427 2.59019 10.95L6.83019 6.71C6.92392 6.61704 6.99831 6.50644 7.04908 6.38458C7.09985 6.26272 7.12599 6.13201 7.12599 6C7.12599 5.86799 7.09985 5.73728 7.04908 5.61543C6.99831 5.49357 6.92392 5.38297 6.83019 5.29Z" fill="#B59A63"/>
</svg>
