<svg width="12" height="8" viewBox="0 0 12 8" fill="none" xmlns="http://www.w3.org/2000/svg">
    <path
        d="M6.72534 6.82495L10.9501 2.56975C11.0435 2.47645 11.1175 2.36559 11.1678 2.24355C11.2181 2.12151 11.2438 1.99071 11.2433 1.8587C11.2429 1.72669 11.2163 1.59607 11.1651 1.4744C11.1138 1.35272 11.0391 1.24239 10.945 1.14976C10.757 0.964185 10.5031 0.860554 10.239 0.861503C9.97477 0.862451 9.7217 0.967902 9.535 1.15482L6.00773 4.70751L2.45505 1.18024C2.26702 0.994663 2.01319 0.891032 1.74901 0.89198C1.48482 0.892928 1.23175 0.998379 1.04506 1.1853C0.952712 1.27907 0.879785 1.39015 0.830458 1.51217C0.781131 1.63418 0.756375 1.76473 0.757608 1.89634C0.75732 2.02795 0.783013 2.15832 0.833214 2.27998C0.883416 2.40163 0.957138 2.51219 1.05015 2.60529L5.30535 6.83004C5.39865 6.92344 5.50951 6.99743 5.63156 7.04777C5.7536 7.0981 5.88439 7.12377 6.01641 7.12329C6.14842 7.12282 6.27903 7.09621 6.4007 7.045C6.52238 6.9938 6.63271 6.91901 6.72534 6.82495Z"
        fill="#1D1F1F" />
</svg>