<svg width="21" height="20" viewBox="0 0 21 20" fill="none" xmlns="http://www.w3.org/2000/svg">
<g clip-path="url(#clip0_650_1084)">
<path d="M17.5034 3.16667H15.9201V0.791667C15.9201 0.581704 15.8367 0.38034 15.6882 0.231874C15.5397 0.0834077 15.3384 0 15.1284 0C14.9185 0 14.7171 0.0834077 14.5686 0.231874C14.4202 0.38034 14.3368 0.581704 14.3368 0.791667V3.16667H6.42008V0.791667C6.42008 0.581704 6.33668 0.38034 6.18821 0.231874C6.03974 0.0834077 5.83838 0 5.62842 0C5.41846 0 5.21709 0.0834077 5.06863 0.231874C4.92016 0.38034 4.83675 0.581704 4.83675 0.791667V3.16667H3.25342C2.62353 3.16667 2.01944 3.41689 1.57404 3.86229C1.12864 4.30769 0.878418 4.91178 0.878418 5.54167V16.625C0.878418 17.2549 1.12864 17.859 1.57404 18.3044C2.01944 18.7498 2.62353 19 3.25342 19H17.5034C18.1333 19 18.7374 18.7498 19.1828 18.3044C19.6282 17.859 19.8784 17.2549 19.8784 16.625V5.54167C19.8784 4.91178 19.6282 4.30769 19.1828 3.86229C18.7374 3.41689 18.1333 3.16667 17.5034 3.16667ZM2.46175 5.54167C2.46175 5.3317 2.54516 5.13034 2.69363 4.98187C2.84209 4.83341 3.04345 4.75 3.25342 4.75H17.5034C17.7134 4.75 17.9147 4.83341 18.0632 4.98187C18.2117 5.13034 18.2951 5.3317 18.2951 5.54167V6.33333H2.46175V5.54167ZM18.2951 16.625C18.2951 16.835 18.2117 17.0363 18.0632 17.1848C17.9147 17.3333 17.7134 17.4167 17.5034 17.4167H3.25342C3.04345 17.4167 2.84209 17.3333 2.69363 17.1848C2.54516 17.0363 2.46175 16.835 2.46175 16.625V7.91667H18.2951V16.625Z" fill="#088F44"/>
<path d="M6.50342 12.25H7.75342C7.91918 12.25 8.07815 12.1842 8.19536 12.0669C8.31257 11.9497 8.37842 11.7908 8.37842 11.625C8.37842 11.4592 8.31257 11.3003 8.19536 11.1831C8.07815 11.0658 7.91918 11 7.75342 11H6.50342C6.33766 11 6.17869 11.0658 6.06148 11.1831C5.94427 11.3003 5.87842 11.4592 5.87842 11.625C5.87842 11.7908 5.94427 11.9497 6.06148 12.0669C6.17869 12.1842 6.33766 12.25 6.50342 12.25ZM6.50342 16H7.75342C7.91918 16 8.07815 15.9342 8.19536 15.8169C8.31257 15.6997 8.37842 15.5408 8.37842 15.375C8.37842 15.2092 8.31257 15.0503 8.19536 14.9331C8.07815 14.8158 7.91918 14.75 7.75342 14.75H6.50342C6.33766 14.75 6.17869 14.8158 6.06148 14.9331C5.94427 15.0503 5.87842 15.2092 5.87842 15.375C5.87842 15.5408 5.94427 15.6997 6.06148 15.8169C6.17869 15.9342 6.33766 16 6.50342 16ZM10.2534 12.25H11.5034C11.6692 12.25 11.8281 12.1842 11.9454 12.0669C12.0626 11.9497 12.1284 11.7908 12.1284 11.625C12.1284 11.4592 12.0626 11.3003 11.9454 11.1831C11.8281 11.0658 11.6692 11 11.5034 11H10.2534C10.0877 11 9.92869 11.0658 9.81148 11.1831C9.69427 11.3003 9.62842 11.4592 9.62842 11.625C9.62842 11.7908 9.69427 11.9497 9.81148 12.0669C9.92869 12.1842 10.0877 12.25 10.2534 12.25ZM10.2534 16H11.5034C11.6692 16 11.8281 15.9342 11.9454 15.8169C12.0626 15.6997 12.1284 15.5408 12.1284 15.375C12.1284 15.2092 12.0626 15.0503 11.9454 14.9331C11.8281 14.8158 11.6692 14.75 11.5034 14.75H10.2534C10.0877 14.75 9.92869 14.8158 9.81148 14.9331C9.69427 15.0503 9.62842 15.2092 9.62842 15.375C9.62842 15.5408 9.69427 15.6997 9.81148 15.8169C9.92869 15.9342 10.0877 16 10.2534 16ZM14.0034 16H15.2534C15.4192 16 15.5781 15.9342 15.6954 15.8169C15.8126 15.6997 15.8784 15.5408 15.8784 15.375C15.8784 15.2092 15.8126 15.0503 15.6954 14.9331C15.5781 14.8158 15.4192 14.75 15.2534 14.75H14.0034C13.8377 14.75 13.6787 14.8158 13.5615 14.9331C13.4443 15.0503 13.3784 15.2092 13.3784 15.375C13.3784 15.5408 13.4443 15.6997 13.5615 15.8169C13.6787 15.9342 13.8377 16 14.0034 16ZM14.0034 12.25H15.2534C15.4192 12.25 15.5781 12.1842 15.6954 12.0669C15.8126 11.9497 15.8784 11.7908 15.8784 11.625C15.8784 11.4592 15.8126 11.3003 15.6954 11.1831C15.5781 11.0658 15.4192 11 15.2534 11H14.0034C13.8377 11 13.6787 11.0658 13.5615 11.1831C13.4443 11.3003 13.3784 11.4592 13.3784 11.625C13.3784 11.7908 13.4443 11.9497 13.5615 12.0669C13.6787 12.1842 13.8377 12.25 14.0034 12.25Z" fill="#088F44"/>
</g>
<defs>
<clipPath id="clip0_650_1084">
<rect width="20" height="20" fill="white" transform="translate(0.378418)"/>
</clipPath>
</defs>
</svg>
