<svg width="14" height="14" viewBox="0 0 14 14" fill="none" xmlns="http://www.w3.org/2000/svg">
    <path
        d="M0.658766 2.2298C0.224848 1.79588 0.224849 1.09236 0.658769 0.658443C1.09269 0.224528 1.7962 0.22453 2.23012 0.658446L6.99998 5.42831L11.7698 0.658446C12.2037 0.22453 12.9073 0.224528 13.3412 0.658443C13.7751 1.09236 13.7751 1.79588 13.3412 2.2298L8.57131 6.99966L13.3412 11.7695C13.7751 12.2034 13.7751 12.907 13.3412 13.3409C12.9073 13.7748 12.2037 13.7748 11.7698 13.3409L6.99998 8.57098L2.23012 13.3409C1.7962 13.7748 1.09269 13.7748 0.658769 13.3409C0.224849 12.907 0.224848 12.2034 0.658766 11.7695L5.42863 6.99966L0.658766 2.2298Z"
        fill="#727272" />
</svg>
    