<svg width="16" height="15" viewBox="0 0 16 15" fill="none" xmlns="http://www.w3.org/2000/svg">
<path d="M0.5 2.14562C0.5 1.66862 0.668924 1.2751 1.00676 0.965067C1.34459 0.655017 1.78379 0.5 2.32432 0.5C2.85522 0.5 3.28474 0.652628 3.61293 0.957912C3.95077 1.27273 4.11969 1.68293 4.11969 2.18855C4.11969 2.64646 3.9556 3.02804 3.62741 3.33333C3.28958 3.64814 2.84556 3.80555 2.29537 3.80555H2.28089C1.75 3.80555 1.32047 3.64814 0.992278 3.33333C0.664088 3.01851 0.5 2.62261 0.5 2.14562ZM0.688224 14.6666V5.10774H3.90251V14.6666H0.688224ZM5.6834 14.6666H8.89768V9.32911C8.89768 8.99521 8.9363 8.73763 9.01351 8.55638C9.14864 8.23203 9.35376 7.95775 9.62886 7.73357C9.90396 7.50938 10.249 7.39729 10.6641 7.39729C11.7452 7.39729 12.2857 8.11755 12.2857 9.55807V14.6666H15.5V9.18601C15.5 7.77411 15.1622 6.70327 14.4865 5.97348C13.8108 5.24368 12.918 4.87878 11.8079 4.87878C10.5627 4.87878 9.59266 5.40824 8.89768 6.46716V6.49578H8.8832L8.89768 6.46716V5.10774H5.6834C5.7027 5.41301 5.71235 6.36221 5.71235 7.95537C5.71235 9.54852 5.7027 11.7856 5.6834 14.6666Z" fill="white"/>
</svg>
