<svg width="24" height="24" viewBox="0 0 24 24" fill="none" xmlns="http://www.w3.org/2000/svg">
<path d="M14 7.75C14 6.645 13.105 5.75 12 5.75C10.895 5.75 10 6.645 10 7.75C10 8.855 10.895 9.75 12 9.75C13.105 9.75 14 8.855 14 7.75ZM11 7.75C11 7.2 11.45 6.75 12 6.75C12.55 6.75 13 7.2 13 7.75C13 8.3 12.55 8.75 12 8.75C11.45 8.75 11 8.3 11 7.75Z" fill="#6DB863"/>
<path d="M2.00022 20.25H22.0002C22.1752 20.25 22.3352 20.16 22.4252 20.01C22.5152 19.86 22.5252 19.68 22.4452 19.525L18.4452 11.525C18.3602 11.355 18.1902 11.25 18.0002 11.25H14.8852C15.6252 9.615 16.0002 8.435 16.0002 7.75C16.0002 5.545 14.2052 3.75 12.0002 3.75C9.79522 3.75 8.00022 5.545 8.00022 7.75C8.00022 8.435 8.37522 9.615 9.11522 11.25H6.00022C5.81022 11.25 5.64022 11.355 5.55522 11.525L1.55522 19.525C1.47522 19.68 1.48522 19.865 1.57522 20.01C1.66522 20.16 1.82522 20.25 2.00022 20.25ZM9.00022 7.75C9.00022 6.095 10.3452 4.75 12.0002 4.75C13.6552 4.75 15.0002 6.095 15.0002 7.75C15.0002 8.895 13.4902 12.03 12.0002 14.73C10.5102 12.03 9.00022 8.895 9.00022 7.75ZM6.31022 12.25H9.58522C10.5202 14.18 11.5252 15.925 11.5702 16C11.7502 16.31 12.2602 16.31 12.4352 16C12.4802 15.925 13.4852 14.18 14.4202 12.25H17.6952L21.1952 19.25H2.81022L6.31022 12.25Z" fill="#6DB863"/>
</svg>
