<svg width="24" height="24" viewBox="0 0 24 24" fill="none" xmlns="http://www.w3.org/2000/svg">
<path d="M19.5999 4.03986H14.1999L11.9999 2.35986L9.7999 4.07986H4.3999V8.31986L2.3999 9.87986V21.6799H21.5999V9.83986L19.5999 8.27986V4.03986ZM11.9999 3.35986L12.8799 4.03986H11.1199L11.9999 3.35986ZM18.7999 4.83986V11.2399L11.9999 15.9599L5.1999 11.2399V4.83986H18.7999ZM4.3999 10.6799L3.4799 10.0399L4.3999 9.31986V10.6799ZM3.1999 20.8399V10.7999L11.9999 16.9199L20.7999 10.7999V20.8399H3.1999ZM20.5199 10.0399L19.5999 10.6799V9.31986L20.5199 10.0399Z" fill="#6DB863"/>
<path d="M16.7998 6.04004H6.7998V6.84004H16.7998V6.04004Z" fill="#6DB863"/>
<path d="M16.7998 8.43994H6.7998V9.23994H16.7998V8.43994Z" fill="#6DB863"/>
<path d="M16.7998 10.8398H6.7998V11.6398H16.7998V10.8398Z" fill="#6DB863"/>
</svg>
