<svg width="22" height="22" viewBox="0 0 22 22" fill="none" xmlns="http://www.w3.org/2000/svg">
    <path
        d="M2.39739 3.68168C3.29193 2.53185 4.38286 1.58476 5.63951 0.867006L7.15843 0L6.67007 1.71353C5.5759 5.55401 6.83254 9.64822 9.87227 12.1429C12.9134 14.638 17.077 14.9938 20.4811 13.05L22 12.1829L21.5116 13.8965C21.1078 15.3138 20.4495 16.6158 19.5549 17.7656C17.3889 20.5502 14.1913 22 10.965 22C8.56132 21.9995 6.14134 21.1945 4.1215 19.5368C-0.608477 15.6543 -1.38185 8.54181 2.39739 3.68168ZM5.01187 18.3922C9.12764 21.7706 15.1528 21.08 18.4408 16.8508C18.866 16.3043 19.23 15.7182 19.5299 15.0978C15.9786 16.4073 11.9989 15.7645 8.98185 13.2874C5.9649 10.8109 4.47567 6.9642 4.93616 3.11797C4.41297 3.55578 3.93671 4.04986 3.51146 4.59638C0.222963 8.82505 0.896059 15.0138 5.01187 18.3922Z"
        fill="black" />
</svg>
    