<svg width="20" height="21" viewBox="0 0 20 21" fill="none" xmlns="http://www.w3.org/2000/svg">
    <path
        d="M5 10.5286C5 13.2186 7.2 15.3322 10 15.3322C12.8 15.3322 15 13.2186 15 10.5286C15 7.83856 12.8 5.72498 10 5.72498C7.2 5.72498 5 7.83856 5 10.5286ZM10 7.64641C11.7 7.64641 13 8.89535 13 10.5286C13 12.1618 11.7 13.4107 10 13.4107C8.3 13.4107 7 12.1618 7 10.5286C7 8.89535 8.3 7.64641 10 7.64641ZM11 3.80354V1.8821C11 1.30567 10.6 0.921387 10 0.921387C9.4 0.921387 9 1.30567 9 1.8821V3.80354C9 4.37997 9.4 4.76426 10 4.76426C10.6 4.76426 11 4.37997 11 3.80354ZM17.1 3.70747C16.7 3.32318 16.1 3.32318 15.7 3.70747L14.3 5.05247C13.9 5.43676 13.9 6.01319 14.3 6.39748C14.5 6.58962 14.8 6.68569 15 6.68569C15.2 6.68569 15.5 6.58962 15.7 6.39748L17.1 5.05247C17.5 4.76426 17.5 4.09176 17.1 3.70747ZM19 9.56785H17C16.4 9.56785 16 9.95214 16 10.5286C16 11.105 16.4 11.4893 17 11.4893H19C19.6 11.4893 20 11.105 20 10.5286C20 9.95214 19.6 9.56785 19 9.56785ZM15.7 14.5636C15.3 14.1793 14.7 14.1793 14.3 14.5636C13.9 14.9479 13.9 15.5243 14.3 15.9086L15.7 17.2536C15.9 17.4457 16.2 17.5418 16.4 17.5418C16.6 17.5418 16.9 17.4457 17.1 17.2536C17.5 16.8693 17.5 16.2929 17.1 15.9086L15.7 14.5636ZM9 17.2536V19.175C9 19.7515 9.4 20.1357 10 20.1357C10.6 20.1357 11 19.7515 11 19.175V17.2536C11 16.6772 10.6 16.2929 10 16.2929C9.4 16.2929 9 16.6772 9 17.2536ZM2.9 17.3497C3.1 17.5418 3.4 17.6379 3.6 17.6379C3.8 17.6379 4.1 17.5418 4.3 17.3497L5.7 16.0047C6.1 15.6204 6.1 15.0439 5.7 14.6597C5.3 14.2754 4.7 14.2754 4.3 14.6597L2.9 16.0047C2.5 16.2929 2.5 16.9654 2.9 17.3497ZM0 10.5286C0 11.105 0.4 11.4893 1 11.4893H3C3.6 11.4893 4 11.105 4 10.5286C4 9.95214 3.6 9.56785 3 9.56785H1C0.4 9.56785 0 9.95214 0 10.5286ZM4.3 3.70747C3.9 3.32318 3.3 3.32318 2.9 3.70747C2.5 4.09176 2.5 4.66819 2.9 5.05247L4.3 6.39748C4.5 6.68569 4.8 6.78177 5.1 6.78177C5.4 6.78177 5.6 6.6857 5.8 6.49355C6.2 6.10926 6.2 5.53283 5.8 5.14855L4.3 3.70747Z"
        fill="white" />
</svg>
    