<svg width="24" height="24" viewBox="0 0 24 24" fill="none" xmlns="http://www.w3.org/2000/svg">
<path d="M20.2349 18.014C19.9903 17.4735 19.5195 17.2843 19.3026 17.2243L16.1965 15.2443C16.1503 15.2074 15.7119 14.8889 15.0703 14.8889C14.5119 14.8889 13.6811 15.1382 12.9149 16.3335C12.6657 16.7259 12.3842 16.772 12.1949 16.772C11.7149 16.772 10.8149 16.4351 9.29185 14.8474L9.19493 14.7459C8.98724 14.5428 7.77339 13.0889 7.03493 12.1889C6.94262 12.0551 6.18108 10.8459 7.28878 9.93662C8.72878 8.75047 8.35493 7.44431 7.96724 6.93662L5.94108 3.9597C5.87185 3.86739 5.25339 3.03662 4.47339 3.03662C4.27955 3.03662 4.09031 3.09201 3.91955 3.18893C3.67955 3.30893 1.91185 4.23662 1.2057 6.24893C0.684161 7.74893 0.882622 9.44277 1.80108 11.2935C4.49185 16.6935 12.0934 21.5812 12.4165 21.7889C12.4349 21.7982 12.4534 21.812 12.4765 21.8212C12.5457 21.8535 14.2765 22.6151 16.0903 22.6151C17.6365 22.6151 18.818 22.0474 19.5057 20.9674C20.3042 19.7166 20.5488 18.7248 20.2349 18.014ZM18.7303 20.4689C18.2088 21.2812 17.3226 21.692 16.0903 21.692C14.5995 21.692 13.1088 21.0874 12.8826 20.9905C12.3519 20.6489 5.12416 15.8905 2.63185 10.8828C1.82878 9.26739 1.63955 7.81816 2.07339 6.56277C2.68262 4.81354 4.31647 4.02431 4.33493 4.01508C4.34878 4.00585 4.36724 4.00124 4.38108 3.99201C4.41339 3.96893 4.44108 3.9597 4.47339 3.9597C4.6857 3.9597 5.02724 4.27354 5.18416 4.49047L7.21493 7.47201C7.31647 7.61047 7.76416 8.34893 6.70262 9.22124C5.27647 10.3982 5.79801 12.0182 6.29647 12.7428C6.49493 12.9828 8.23955 15.1059 8.54416 15.4059L8.62724 15.4889C10.0488 16.9705 11.2211 17.6951 12.1949 17.6951C12.8134 17.6951 13.3303 17.3951 13.6903 16.832C13.9903 16.3659 14.4749 15.812 15.0703 15.812C15.4026 15.812 15.638 15.9782 15.6657 16.0012L18.8688 18.0412C18.9242 18.0782 18.9795 18.0966 19.0442 18.1105C19.0442 18.1105 19.2888 18.1612 19.3903 18.392C19.4734 18.5766 19.5749 19.1489 18.7303 20.4689Z" fill="#6DB863"/>
<path d="M20.114 17.0545C20.023 17.0544 19.9341 17.0274 19.8584 16.9768C19.7827 16.9263 19.7236 16.8546 19.6886 16.7705C19.6536 16.6865 19.6442 16.5941 19.6615 16.5047C19.6789 16.4154 19.7224 16.3332 19.7863 16.2685C21.3136 14.7246 22.155 12.686 22.155 10.5283C22.155 5.99602 18.4165 2.30833 13.8214 2.30833C11.6928 2.30833 9.66665 3.0994 8.1168 4.53525C8.07261 4.57772 8.0204 4.61097 7.96321 4.63304C7.90603 4.65512 7.84503 4.66559 7.78376 4.66383C7.72249 4.66207 7.66218 4.64813 7.60636 4.62281C7.55054 4.59749 7.50031 4.56131 7.45863 4.51637C7.41694 4.47144 7.38462 4.41865 7.36356 4.36109C7.34249 4.30352 7.33311 4.24234 7.33594 4.18111C7.33878 4.11988 7.35379 4.05983 7.38008 4.00447C7.40638 3.9491 7.44344 3.89952 7.48911 3.85864C9.21137 2.26336 11.4739 1.37948 13.8214 1.38479C18.926 1.38479 23.078 5.48648 23.078 10.5279C23.078 12.9302 22.142 15.1986 20.4426 16.9174C20.3997 16.9609 20.3486 16.9954 20.2921 17.0189C20.2357 17.0423 20.1751 17.0547 20.114 17.0545Z" fill="#6DB863"/>
<path d="M13.845 4.49651C13.7235 4.49652 13.6069 4.44859 13.5205 4.36313C13.4341 4.27767 13.3848 4.16158 13.3835 4.04005L13.3595 1.8519C13.3583 1.72957 13.4057 1.61175 13.4913 1.52434C13.5769 1.43693 13.6936 1.38708 13.816 1.38574H13.8206C13.942 1.38573 14.0586 1.4336 14.145 1.51896C14.2314 1.60432 14.2807 1.7203 14.2821 1.84174L14.3066 4.03036C14.3078 4.15269 14.2604 4.2705 14.1748 4.35791C14.0892 4.44532 13.9725 4.49517 13.8501 4.49651H13.8455H13.845ZM20.3495 11.0144C20.2889 11.0147 20.2288 11.003 20.1727 10.9801C20.1166 10.9572 20.0655 10.9235 20.0225 10.8808C19.9794 10.8382 19.9452 10.7875 19.9217 10.7316C19.8982 10.6757 19.886 10.6157 19.8857 10.5551C19.8854 10.4945 19.897 10.4344 19.9199 10.3783C19.9428 10.3222 19.9766 10.2712 20.0192 10.2281C20.0619 10.185 20.1126 10.1508 20.1684 10.1273C20.2243 10.1038 20.2843 10.0916 20.3449 10.0913L22.611 10.0668H22.6161C22.7385 10.0662 22.8562 10.1142 22.9432 10.2004C23.0301 10.2865 23.0794 10.4036 23.08 10.526C23.0806 10.6485 23.0325 10.7661 22.9464 10.8531C22.8603 10.9401 22.7431 10.9893 22.6207 10.9899L20.3546 11.0144H20.3495ZM9.73828 11.7417V11.2954L10.3171 10.7411C11.7095 9.43359 12.3386 8.73851 12.3469 7.92713C12.3469 7.38159 12.0783 6.87667 11.2646 6.87667C10.7698 6.87667 10.3591 7.12451 10.1071 7.33128L9.87259 6.81851C10.3076 6.46229 10.8533 6.26902 11.4155 6.27205C12.5901 6.27205 13.0854 7.06682 13.0854 7.8362C13.0854 8.82897 12.3557 9.63159 11.206 10.7245L10.7698 11.1214V11.138H13.2192V11.7422L9.73828 11.7417ZM17.0177 9.70636V6.36436H16.2192L13.7869 9.7982V10.2782H16.3207V11.7413H17.0177V10.2782H17.7792V9.70589H17.0177V9.70636ZM16.3207 7.91051V9.70589H14.5346V9.69251L15.8684 7.8602C16.0207 7.61559 16.1546 7.3802 16.3207 7.06636H16.3484C16.33 7.3479 16.3207 7.62897 16.3207 7.91051Z" fill="#6DB863"/>
</svg>
