<svg width="58" height="58" viewBox="0 0 58 58" fill="none" xmlns="http://www.w3.org/2000/svg">
<path d="M23.3332 41.7501L40.3332 29.0001L23.3332 16.2501V41.7501ZM28.9998 0.666748C13.3457 0.666748 0.666504 13.3459 0.666504 29.0001C0.666504 44.6543 13.3457 57.3334 28.9998 57.3334C44.654 57.3334 57.3332 44.6543 57.3332 29.0001C57.3332 13.3459 44.654 0.666748 28.9998 0.666748ZM28.9998 51.6668C16.5048 51.6668 6.33317 41.4951 6.33317 29.0001C6.33317 16.5051 16.5048 6.33342 28.9998 6.33342C41.4948 6.33342 51.6665 16.5051 51.6665 29.0001C51.6665 41.4951 41.4948 51.6668 28.9998 51.6668Z" fill="white"/>
</svg>
