<svg width="20" height="14" viewBox="0 0 20 14" fill="none" xmlns="http://www.w3.org/2000/svg">
<path d="M7.96677 9.57784L13.3879 6.80001L7.96677 3.98951V9.57784ZM10.0397 9.50521e-05C11.2946 9.50521e-05 12.5066 0.0168173 13.6756 0.0502617C14.8446 0.0837062 15.7017 0.118901 16.2468 0.155845L17.0644 0.202512C17.0719 0.202512 17.1346 0.208151 17.2527 0.219428C17.3509 0.227012 17.4391 0.238678 17.5262 0.255012L17.5109 0.252678C17.5634 0.263956 17.6513 0.280678 17.7744 0.302845C17.895 0.323262 18.0027 0.354178 18.1044 0.395012L18.0938 0.391512C18.1836 0.428456 18.2883 0.476678 18.4079 0.536178C18.5403 0.602678 18.6544 0.675012 18.7603 0.756095L18.7556 0.752595C18.875 0.844762 18.9809 0.941012 19.0785 1.04543L19.0803 1.04718C19.1403 1.1096 19.1974 1.17668 19.2497 1.24668L19.2538 1.25251C19.3727 1.43801 19.4821 1.65268 19.5697 1.87726L19.5785 1.90293C19.7197 2.22901 19.8238 2.60701 19.8732 3.00251L19.8756 3.02293C19.9352 3.49698 19.9823 4.00254 20.0168 4.5396C20.0513 5.07665 20.0719 5.49665 20.0785 5.7996V7.75493C20.0791 7.80043 20.0791 7.85468 20.0791 7.90835C20.0791 8.98926 20.0056 10.0538 19.8632 11.0963L19.8768 10.9749C19.8262 11.3856 19.7268 11.7589 19.5838 12.1101L19.5944 12.0803C19.4991 12.3411 19.3779 12.5668 19.2297 12.7722L19.2356 12.7634L19.0791 12.9501C18.9797 13.0563 18.8738 13.1525 18.7603 13.24L18.7544 13.2447C18.6538 13.3228 18.5397 13.3928 18.4185 13.4506L18.4074 13.4553C18.2878 13.5109 18.183 13.5575 18.0932 13.5953C18.0015 13.6326 17.8944 13.6635 17.7832 13.6828L17.7738 13.6839C17.6507 13.7061 17.5611 13.7228 17.505 13.7341C17.4489 13.7454 17.363 13.7565 17.2474 13.7673C17.1317 13.7782 17.0701 13.7839 17.0627 13.7843C15.1901 13.9289 12.8495 14.0013 10.0409 14.0013C8.49461 13.9865 7.15187 13.9624 6.01265 13.9289C4.87344 13.8955 4.12461 13.8677 3.76618 13.8455L3.21677 13.7988L2.81324 13.7522C2.57559 13.723 2.36795 13.6839 2.16501 13.6332L2.20148 13.6408C1.9803 13.5719 1.79148 13.4932 1.61148 13.3987L1.6303 13.4074C1.38501 13.2878 1.17618 13.135 0.997947 12.9524L0.997359 12.9518C0.937359 12.8894 0.8803 12.8223 0.827947 12.7523L0.823829 12.7465C0.705006 12.561 0.595594 12.3463 0.507947 12.1218L0.499123 12.0961C0.357947 11.77 0.253829 11.392 0.204417 10.9965L0.202065 10.9761C0.142457 10.502 0.0953979 9.99648 0.0608881 9.45943C0.0263783 8.92237 0.00579006 8.50237 -0.000876608 8.19943V6.2441C-0.00146484 6.1986 -0.00146484 6.14435 -0.00146484 6.09068C-0.00146484 5.00976 0.0720646 3.94518 0.214418 2.90276L0.200888 3.02409C0.251476 2.61343 0.350888 2.24009 0.493829 1.88893L0.483241 1.91868C0.578535 1.65793 0.699712 1.43218 0.847947 1.22684L0.842064 1.23559L0.998535 1.04893C1.09795 0.942762 1.20383 0.846512 1.31736 0.759012L1.32324 0.754345C1.42442 0.676178 1.53795 0.604428 1.65854 0.543178L1.67089 0.537345C1.7905 0.478234 1.8952 0.430012 1.98501 0.392678C2.07677 0.355345 2.18383 0.324428 2.29501 0.305178L2.30442 0.304012C2.42755 0.281845 2.5154 0.265123 2.56795 0.253845C2.63912 0.239845 2.72736 0.228178 2.81736 0.221178L2.82618 0.220595C2.94579 0.209317 3.00853 0.203678 3.01442 0.203678C4.8901 0.0675673 7.23246 -0.000488281 10.0415 -0.000488281L10.0397 9.50521e-05Z" fill="white"/>
</svg>
