<svg width="56" height="56" viewBox="0 0 56 56" fill="none" xmlns="http://www.w3.org/2000/svg">
<g clip-path="url(#clip0_729_60)">
<path d="M26.8332 28C31.3435 28 34.9998 24.3436 34.9998 19.8333C34.9998 15.323 31.3435 11.6666 26.8332 11.6666C22.3228 11.6666 18.6665 15.323 18.6665 19.8333C18.6665 24.3436 22.3228 28 26.8332 28Z" fill="white"/>
<path d="M43.1668 32.6667C46.3885 32.6667 49.0002 30.055 49.0002 26.8333C49.0002 23.6117 46.3885 21 43.1668 21C39.9452 21 37.3335 23.6117 37.3335 26.8333C37.3335 30.055 39.9452 32.6667 43.1668 32.6667Z" fill="white"/>
<path d="M10.6659 32.6667C13.8875 32.6667 16.4992 30.055 16.4992 26.8333C16.4992 23.6117 13.8875 21 10.6659 21C7.44419 21 4.83252 23.6117 4.83252 26.8333C4.83252 30.055 7.44419 32.6667 10.6659 32.6667Z" fill="white"/>
<path d="M26.8333 30.3334C22.8124 30.3383 18.9576 31.9378 16.1143 34.781C13.2711 37.6243 11.6716 41.4791 11.6667 45.5C11.6667 45.8095 11.7896 46.1062 12.0084 46.325C12.2272 46.5438 12.5239 46.6667 12.8333 46.6667H40.8333C41.1428 46.6667 41.4395 46.5438 41.6583 46.325C41.8771 46.1062 42 45.8095 42 45.5C42 37.1374 35.196 30.3334 26.8333 30.3334ZM12.677 35.252C11.9621 35.0921 11.2325 35.0077 10.5 35C7.71618 35.0031 5.04725 36.1104 3.07879 38.0788C1.11033 40.0473 0.003088 42.7162 0 45.5C0 45.8095 0.122916 46.1062 0.341709 46.325C0.560501 46.5438 0.857247 46.6667 1.16667 46.6667H9.548C9.40982 46.2931 9.3372 45.8984 9.33333 45.5C9.33333 41.671 10.584 38.136 12.677 35.252ZM43.1667 35C42.4293 35 41.7037 35.1004 40.9897 35.252C43.1615 38.2277 44.3324 41.8161 44.3333 45.5C44.3333 45.9107 44.2493 46.3004 44.1187 46.6667H52.5C52.8094 46.6667 53.1062 46.5438 53.325 46.325C53.5438 46.1062 53.6667 45.8095 53.6667 45.5C53.6667 39.711 48.9557 35 43.1667 35Z" fill="white"/>
</g>
<defs>
<clipPath id="clip0_729_60">
<rect width="56" height="56" fill="white"/>
</clipPath>
</defs>
</svg>
