<svg width="56" height="56" viewBox="0 0 56 56" fill="none" xmlns="http://www.w3.org/2000/svg">
<g clip-path="url(#clip0_729_113)">
<path d="M18.8998 31.1383L25.5031 24.535L9.13478 8.16662C5.49479 11.8066 5.49479 17.7216 9.13478 21.3616L18.8998 31.1383ZM34.7315 26.9033C38.2898 28.5716 43.3181 27.3933 47.0281 23.6833C51.4964 19.215 52.3481 12.8333 48.9298 9.41495C45.4998 5.99662 39.1065 6.84829 34.6498 11.3166C30.9398 15.0266 29.7731 20.055 31.4298 23.6133C26.2381 28.7933 8.64478 46.3866 8.64478 46.3866L11.9465 49.6883L27.9998 33.635L44.0531 49.6883L47.3548 46.3866L31.3015 30.3333L34.7315 26.9033Z" fill="white"/>
</g>
<defs>
<clipPath id="clip0_729_113">
<rect width="56" height="56" fill="white"/>
</clipPath>
</defs>
</svg>
