<svg width="56" height="56" viewBox="0 0 56 56" fill="none" xmlns="http://www.w3.org/2000/svg">
<path d="M45.7006 14.3483C46.2526 14.3225 46.7719 14.0785 47.144 13.6699C47.5162 13.2613 47.7108 12.7216 47.6851 12.1695C47.6593 11.6174 47.4153 11.0982 47.0067 10.726C46.5981 10.3539 46.0584 10.1592 45.5063 10.185L44.7258 10.2209L44.6899 9.44038C44.6772 9.16701 44.6107 8.89884 44.4943 8.65117C44.3779 8.40349 44.2139 8.18117 44.0116 7.99689C43.8092 7.81262 43.5726 7.66999 43.3152 7.57716C43.0577 7.48434 42.7845 7.44312 42.5112 7.45588C42.2378 7.46863 41.9696 7.53511 41.722 7.6515C41.4743 7.7679 41.252 7.93193 41.0677 8.13425C40.8834 8.33657 40.7408 8.5732 40.648 8.83063C40.5551 9.08807 40.5139 9.36126 40.5267 9.63463L40.7568 14.5784L45.7006 14.3483ZM46.6639 20.4855L46.6359 21.0875L46.0339 21.0595C45.8225 21.0485 45.6109 21.0793 45.4114 21.1504C45.2119 21.2214 45.0284 21.3311 44.8715 21.4733C44.7146 21.6155 44.5873 21.7873 44.497 21.9789C44.4067 22.1704 44.3552 22.3779 44.3454 22.5894C44.3356 22.801 44.3677 23.0124 44.4399 23.2114C44.5121 23.4105 44.6229 23.5933 44.766 23.7494C44.9091 23.9055 45.0817 24.0318 45.2737 24.121C45.4658 24.2101 45.6736 24.2604 45.8852 24.269L49.6958 24.4458L49.8726 20.6351C49.8824 20.4244 49.8506 20.2139 49.7791 20.0155C49.7075 19.8171 49.5976 19.6347 49.4556 19.4788C49.3135 19.3229 49.1422 19.1965 48.9513 19.1068C48.7604 19.0171 48.5537 18.9658 48.3431 18.956C48.1324 18.9462 47.9218 18.9779 47.7234 19.0495C47.525 19.121 47.3426 19.231 47.1867 19.373C47.0308 19.515 46.9044 19.6864 46.8147 19.8773C46.725 20.0681 46.6738 20.2748 46.6639 20.4855Z" fill="white"/>
<path d="M38.9375 4.7583C39.5416 4.7583 40.0312 4.26861 40.0312 3.66455C40.0312 3.06049 39.5416 2.5708 38.9375 2.5708C38.3334 2.5708 37.8438 3.06049 37.8438 3.66455C37.8438 4.26861 38.3334 4.7583 38.9375 4.7583Z" fill="white"/>
<path d="M49.875 8.01587C50.4791 8.01587 50.9688 7.52618 50.9688 6.92212C50.9688 6.31806 50.4791 5.82837 49.875 5.82837C49.2709 5.82837 48.7812 6.31806 48.7812 6.92212C48.7812 7.52618 49.2709 8.01587 49.875 8.01587Z" fill="white"/>
<path d="M40.0312 20.0471C40.6353 20.0471 41.125 19.5574 41.125 18.9534C41.125 18.3493 40.6353 17.8596 40.0312 17.8596C39.4272 17.8596 38.9375 18.3493 38.9375 18.9534C38.9375 19.5574 39.4272 20.0471 40.0312 20.0471Z" fill="white"/>
<path d="M10.2999 14.3482L15.2436 14.5784L15.4737 9.6346C15.489 9.08875 15.2895 8.5587 14.9181 8.15843C14.5466 7.75817 14.0329 7.51966 13.4875 7.49421C12.942 7.46876 12.4083 7.6584 12.0012 8.02234C11.5941 8.38628 11.3461 8.89545 11.3105 9.44035L11.2746 10.2209L10.4941 10.185C9.94204 10.1592 9.40234 10.3538 8.99374 10.726C8.58515 11.0982 8.34113 11.6174 8.31537 12.1695C8.28961 12.7216 8.48422 13.2613 8.85639 13.6699C9.22855 14.0785 9.74779 14.3225 10.2999 14.3482ZM6.12699 20.6342L6.30374 24.4449L10.1144 24.2681C10.326 24.2595 10.5338 24.2092 10.7258 24.1201C10.9179 24.0309 11.0904 23.9046 11.2335 23.7485C11.3766 23.5925 11.4875 23.4096 11.5597 23.2105C11.6318 23.0115 11.6639 22.8001 11.6541 22.5885C11.6443 22.377 11.5928 22.1695 11.5025 21.978C11.4122 21.7864 11.285 21.6146 11.1281 21.4724C10.9711 21.3302 10.7876 21.2205 10.5882 21.1495C10.3887 21.0784 10.1771 21.0476 9.96562 21.0586L9.36362 21.0866L9.33562 20.4846C9.33068 20.2705 9.28298 20.0596 9.19533 19.8642C9.10769 19.6688 8.98186 19.4929 8.82525 19.3468C8.66865 19.2008 8.48442 19.0875 8.2834 19.0137C8.08238 18.9398 7.86863 18.907 7.65471 18.9169C7.4408 18.9269 7.23104 18.9795 7.03776 19.0718C6.84449 19.164 6.6716 19.2939 6.52926 19.4539C6.38693 19.6139 6.27801 19.8007 6.20893 20.0034C6.13985 20.2061 6.11199 20.4206 6.12699 20.6342Z" fill="white"/>
<path d="M17.0625 4.7583C17.6666 4.7583 18.1562 4.26861 18.1562 3.66455C18.1562 3.06049 17.6666 2.5708 17.0625 2.5708C16.4584 2.5708 15.9688 3.06049 15.9688 3.66455C15.9688 4.26861 16.4584 4.7583 17.0625 4.7583Z" fill="white"/>
<path d="M6.125 8.01587C6.72906 8.01587 7.21875 7.52618 7.21875 6.92212C7.21875 6.31806 6.72906 5.82837 6.125 5.82837C5.52094 5.82837 5.03125 6.31806 5.03125 6.92212C5.03125 7.52618 5.52094 8.01587 6.125 8.01587Z" fill="white"/>
<path d="M15.9688 20.0471C16.5728 20.0471 17.0625 19.5574 17.0625 18.9534C17.0625 18.3493 16.5728 17.8596 15.9688 17.8596C15.3647 17.8596 14.875 18.3493 14.875 18.9534C14.875 19.5574 15.3647 20.0471 15.9688 20.0471Z" fill="white"/>
<path d="M28 23.8989C30.1105 23.8989 31.8281 22.1813 31.8281 20.0708C31.8281 17.9603 30.1105 16.2427 28 16.2427C25.8895 16.2427 24.1719 17.9603 24.1719 20.0708C24.1719 22.1813 25.8895 23.8989 28 23.8989ZM28 17.3364C29.5076 17.3364 30.7344 18.5632 30.7344 20.0708C30.7344 21.5784 29.5076 22.8052 28 22.8052C26.4924 22.8052 25.2656 21.5784 25.2656 20.0708C25.2656 18.5632 26.4924 17.3364 28 17.3364ZM3.41162 46.8677C3.69162 50.5331 6.76375 53.4302 10.5 53.4302H45.5C49.2362 53.4302 52.3084 50.5331 52.5884 46.8677H3.41162Z" fill="white"/>
<path d="M5.58496 45.7738H9.96259C10.1533 39.5709 13.5693 33.831 18.976 30.6958C19.1012 30.627 19.2483 30.6098 19.386 30.6481C19.5237 30.6864 19.6409 30.777 19.7126 30.9006C19.7843 31.0242 19.8047 31.171 19.7696 31.3095C19.7345 31.448 19.6465 31.5672 19.5246 31.6417C14.454 34.5808 11.2462 39.9586 11.0563 45.773H50.4156C50.1242 33.6612 40.1816 23.8979 28.0007 23.8979C15.8198 23.8979 5.87634 33.6612 5.58496 45.7738ZM27.9998 28.2738C30.3387 28.2738 32.6155 28.7166 34.768 29.5907C34.8359 29.6167 34.898 29.656 34.9505 29.7063C35.0031 29.7565 35.0451 29.8168 35.0741 29.8835C35.1031 29.9502 35.1185 30.0221 35.1194 30.0948C35.1203 30.1676 35.1066 30.2397 35.0793 30.3071C35.0519 30.3745 35.0114 30.4358 34.9601 30.4874C34.9087 30.5389 34.8476 30.5797 34.7803 30.6073C34.7131 30.635 34.6409 30.6489 34.5682 30.6483C34.4954 30.6477 34.4235 30.6327 34.3567 30.604C32.3379 29.7838 30.1789 29.3639 27.9998 29.3676C27.8548 29.3676 27.7157 29.31 27.6131 29.2074C27.5106 29.1048 27.453 28.9657 27.453 28.8207C27.453 28.6757 27.5106 28.5366 27.6131 28.434C27.7157 28.3314 27.8548 28.2738 27.9998 28.2738Z" fill="white"/>
</svg>
