<svg width="56" height="56" viewBox="0 0 56 56" fill="none" xmlns="http://www.w3.org/2000/svg">
<path d="M37.0777 11.5024C35.1508 11.5767 33.2457 11.9412 31.4257 12.5839C30.6325 12.843 29.8255 13.0572 29.0086 13.2255C29.2242 11.4896 29.8472 9.83053 30.826 8.38617C31.0441 8.03788 31.2622 7.70793 31.4439 7.37797C31.5644 7.16649 31.5967 6.91539 31.5336 6.67991C31.4706 6.44442 31.3173 6.24385 31.1077 6.12231C30.898 6.00077 30.6491 5.96822 30.4156 6.03181C30.1821 6.09541 29.9833 6.24995 29.8628 6.46143C29.6992 6.77306 29.4993 7.06635 29.2994 7.3963C28.7934 8.23281 28.3558 9.10948 27.9909 10.0176C27.411 8.81381 26.507 7.7989 25.3821 7.08898C24.2573 6.37906 22.9571 6.00277 21.6302 6.00316C21.3892 6.00316 21.158 6.09972 20.9876 6.27161C20.8172 6.44349 20.7215 6.67662 20.7215 6.9197C20.678 8.67843 21.1455 10.4116 22.0663 11.9057C21.0307 11.6515 19.9699 11.5162 18.9041 11.5024C11.871 11.5024 8 16.7084 8 26.1671C8 35.6258 14.488 49.9972 23.4475 49.9972C24.5053 50.0259 25.5574 49.8323 26.537 49.429C26.9962 49.2234 27.4891 49.1053 27.9909 49.0807C28.4988 49.1035 28.998 49.2216 29.463 49.429C30.4426 49.8323 31.4947 50.0259 32.5525 49.9972C41.512 49.9972 48 35.7725 48 26.1671C48 16.5617 44.1109 11.5024 37.0777 11.5024ZM18.9041 17.0017C17.9121 16.9167 16.9212 17.1781 16.0974 17.7421C15.2737 18.306 14.667 19.1383 14.3789 20.0996C14.2873 20.3257 14.1105 20.5058 13.8872 20.6003C13.664 20.6948 13.4127 20.6961 13.1886 20.6037C12.9644 20.5113 12.7859 20.3329 12.6921 20.1078C12.5984 19.8826 12.5972 19.6291 12.6888 19.403C13.1183 18.1056 13.9603 16.9875 15.084 16.2219C16.2078 15.4563 17.5505 15.0861 18.9041 15.1686C19.1451 15.1686 19.3763 15.2652 19.5467 15.437C19.7171 15.6089 19.8128 15.8421 19.8128 16.0851C19.8128 16.3282 19.7171 16.5613 19.5467 16.7332C19.3763 16.9051 19.1451 17.0017 18.9041 17.0017Z" fill="white"/>
</svg>
