<svg width="60" height="49" viewBox="0 0 60 49" fill="none" xmlns="http://www.w3.org/2000/svg">
<path d="M51.3749 29.936C51.9374 30.1657 52.4999 30.9313 52.4999 31.4672C52.4999 31.7735 52.3124 32.0032 52.0312 32.1563C51.7499 32.3094 51.4687 32.386 51.0937 32.4625C49.7812 32.6157 48.3749 32.7688 47.0624 32.9219L43.1249 33.3813C42.7499 33.4578 42.3749 33.3813 42.0937 33.3047C41.3437 33.075 40.9687 32.386 41.1562 31.6203C41.3437 31.0844 41.7187 30.7016 42.4687 30.625C44.9062 30.3188 47.2499 30.0891 49.6874 29.8594C50.2499 29.7063 50.9062 29.7063 51.3749 29.936Z" fill="white"/>
<path d="M41.8124 43.8703C41.7186 43.9468 41.7186 44.0999 41.6249 44.1765C41.1561 45.3249 41.3436 46.4734 42.2811 47.3921L42.4686 47.5453C41.2499 47.6984 39.9374 47.7749 38.7186 47.7749C36.5624 47.8515 34.4061 47.7749 32.2499 47.3156C30.2811 46.9328 28.4999 46.1671 26.5311 45.9374C25.0311 45.7843 23.5311 45.7843 21.9374 45.7078C20.8124 45.7078 19.8749 44.9421 19.6874 44.0234L17.8124 31.6968C17.7186 30.8546 18.2811 30.0124 19.2186 29.7062C20.3436 29.3234 21.4686 28.7874 22.4999 28.2515C25.6874 26.414 31.3124 22.6624 35.1561 21.8968C39.3749 20.9781 43.0311 22.9687 47.1561 23.5812C48.3749 23.7343 50.8124 23.8109 50.9061 25.189C51.0936 27.7156 47.2499 28.1749 44.9061 28.1749C43.4999 28.1749 41.9999 28.0984 40.5936 27.8687C40.2186 27.7921 39.2811 27.4859 38.9061 27.5624C38.8124 27.5624 38.6249 27.639 38.5311 27.7156C37.6874 28.1749 37.6874 29.3234 37.4061 30.089C36.9374 31.0843 36.1874 32.1562 35.4374 32.9984C34.2186 34.2999 32.0624 36.0609 29.9061 36.5968C29.8124 36.5968 29.8124 36.6734 29.8124 36.6734L29.9061 36.7499C34.1249 36.4437 37.0311 33.8406 38.8124 30.9312C38.8124 31.0078 38.7186 31.0843 38.7186 31.1609C38.4374 32.0796 38.6249 33.0749 39.2811 33.764C38.4374 34.2234 37.7811 34.989 37.5936 35.9078C37.4061 36.9031 37.6874 37.8218 38.4374 38.5874C38.7186 38.8937 39.0936 39.1234 39.5624 39.2765C39.3749 39.5062 39.2811 39.7359 39.1874 39.9656C39.2811 41.0374 39.5624 42.1093 40.3124 42.8749C40.6874 43.3343 41.2499 43.6406 41.8124 43.8703Z" fill="white"/>
<path d="M51.0937 3.98123C51.1875 2.67966 50.1562 1.76091 48.5625 1.76091C43.3125 1.53123 38.0625 1.3781 32.8125 1.22498H32.0625C30.8438 1.53123 30.0937 2.29685 30.0937 3.36873C29.9062 7.5031 29.8125 10.6422 29.625 14.4703L29.5312 16.5375L29.4375 18.6047C29.3437 19.9828 29.25 21.2843 29.1562 22.5093C30.2812 21.7437 31.5 21.1312 32.9062 20.7484L33.1875 16.614C33.2813 14.164 33.375 11.7906 33.5625 8.95779C33.6562 8.95779 33.75 8.88123 33.8437 8.88123H33.9375C35.7188 8.49841 36.9375 7.57966 37.3125 6.12498C39.6562 6.20154 41.7187 6.2781 43.5937 6.2781C44.0625 7.88591 45.2812 8.95779 47.1562 9.41716C46.9687 12.4031 46.875 14.8531 46.7812 16.9969V17.3031C46.6875 18.7578 46.5937 20.289 46.5 22.1265L47.9062 22.3562C48.0937 22.3562 48.1875 22.4328 48.375 22.4328C48.75 22.5093 49.4062 22.5859 50.0625 22.6625L50.4375 16.3843V15.8484L51.0937 3.98123Z" fill="white"/>
<path d="M43.9088 17.0406C43.9891 15.2237 42.2506 13.6976 40.0258 13.632C37.8009 13.5664 35.9322 14.9862 35.8519 16.8031C35.7716 18.6201 37.5101 20.1462 39.735 20.2118C41.9598 20.2773 43.8285 18.8576 43.9088 17.0406Z" fill="white"/>
<path d="M43.9088 17.0406C43.9891 15.2237 42.2506 13.6976 40.0258 13.632C37.8009 13.5664 35.9322 14.9862 35.8519 16.8031C35.7716 18.6201 37.5101 20.1462 39.735 20.2118C41.9598 20.2773 43.8285 18.8576 43.9088 17.0406Z" fill="white"/>
<path d="M22.5001 4.51724C22.3126 4.5938 22.0314 4.5938 21.8439 4.74692C20.7189 5.28286 20.3439 6.20161 20.6251 7.27349C22.0314 11.2547 22.9689 14.3172 24.2814 17.9922L24.9376 19.9829L25.5939 22.05C25.8751 22.9688 26.1564 23.811 26.4376 24.6532L27.0001 24.1938C27.0939 23.3516 27.0939 22.4329 27.1876 21.5907L27.4689 16.5375V16.3844C27.0001 14.9297 26.4376 13.475 25.9689 11.8672C26.0626 11.7907 26.1564 11.7907 26.1564 11.7141L26.2501 11.6375C26.8126 11.3313 27.3751 10.9485 27.6564 10.5657C27.7501 8.2688 27.8439 6.04849 27.9376 3.3688V3.29224C26.2501 3.67505 24.3751 4.13442 22.5001 4.51724Z" fill="white"/>
<path d="M16.4999 46.7797L10.0312 47.3922C9.28118 47.4688 8.43743 47.0094 8.34368 46.3203L5.99993 30.7016C5.90618 30.0125 6.46868 29.4 7.31243 29.3235L13.7812 28.711C14.6249 28.6344 15.3749 29.0938 15.4687 29.7828L17.8124 45.4016C17.9062 46.0906 17.3437 46.7031 16.4999 46.7797ZM51.4687 45.7844C50.7187 45.9375 49.9687 46.0906 49.2187 46.1672C47.9999 46.3203 46.8749 46.4735 45.6562 46.7031C44.9999 46.7797 44.4374 46.7031 43.9687 46.2438C43.4999 45.7844 43.4062 45.2485 43.6874 44.7125C43.8749 44.2531 44.3437 44.0235 44.9999 43.8703C45.0937 43.8703 45.3749 43.7938 45.6562 43.7938C47.0624 43.5641 50.0624 43.1813 50.9999 43.1047H51.2812C52.1249 43.1047 52.4999 43.3344 52.5937 43.8703C52.7812 44.7125 52.3124 45.5547 51.4687 45.7844ZM52.1249 41.1906C51.7499 41.2672 51.3749 41.2672 50.9999 41.3438C49.6874 41.4969 48.4687 41.65 47.1562 41.8031C46.5937 41.8797 46.0312 41.9563 45.3749 42.0328H45.2812C44.7187 42.1094 44.1562 42.1094 43.6874 42.186C42.0937 42.4156 41.5312 41.1906 41.8124 40.3485C41.9062 39.8891 42.2812 39.6594 42.7499 39.5063C42.9374 39.4297 43.0312 39.4297 43.2187 39.4297C44.6249 39.2766 46.1249 39.1235 47.5312 38.9703C48.9374 38.8172 50.3437 38.6641 51.8437 38.511H52.4999C53.2499 38.5875 53.7187 38.8172 53.8124 39.3531C53.8124 40.2719 53.2499 41.0375 52.1249 41.1906ZM53.9999 35.0656C53.9062 36.1375 53.4374 36.5969 52.2187 36.75C50.5312 36.9031 48.9374 37.1328 47.2499 37.286C45.5624 37.5156 43.8749 37.6688 42.1874 37.8219H41.9062C40.7812 37.8219 40.0312 37.1328 40.2187 36.1375C40.3124 35.525 40.7812 35.1422 41.5312 35.0656C41.7187 35.0656 41.8124 35.0656 41.9999 34.9891C45.2812 34.6063 48.5624 34.2235 51.8437 33.9172H52.6874C52.8749 33.9172 53.0624 33.9938 53.1562 33.9938C53.7187 34.1469 53.9999 34.5297 53.9999 35.0656Z" fill="white"/>
</svg>
