<svg width="56" height="56" viewBox="0 0 56 56" fill="none" xmlns="http://www.w3.org/2000/svg">
<path d="M44.8002 17.304C44.4082 16.744 43.7362 16.408 43.0642 16.408H32.1442C31.7522 16.408 31.4162 16.072 31.4162 15.68V13.328C31.4162 12.096 30.4082 11.088 29.1762 11.088H20.7762C20.4402 11.088 20.2162 11.424 20.3842 11.76C21.2802 13.496 21.6722 15.568 21.3922 17.696C20.8322 22.176 17.2482 25.76 12.7682 26.432C10.1362 26.824 7.61622 26.152 5.65622 24.752C5.32022 24.528 4.92822 24.752 4.92822 25.144V39.592C4.92822 40.824 5.93622 41.832 7.16822 41.832H8.96022C9.24022 41.832 9.46422 41.608 9.52022 41.328C9.80022 37.408 13.0482 34.328 17.0242 34.328C21.0002 34.328 24.2482 37.408 24.5282 41.328C24.5282 41.608 24.7522 41.832 25.0882 41.832H30.4642C30.7442 41.832 30.9682 41.608 31.0242 41.328C31.3042 37.408 34.5522 34.328 38.5282 34.328C42.5042 34.328 45.7522 37.408 46.0322 41.328C46.0322 41.608 46.2562 41.832 46.5922 41.832H50.4002C51.5762 41.832 52.5282 40.88 52.5282 39.704V29.176C52.5282 28.728 52.4162 28.336 52.1362 27.944L44.8002 17.304ZM47.3202 29.68C47.3202 30.072 46.9842 30.352 46.6482 30.352H35.6722C35.2802 30.352 35.0002 30.072 35.0002 29.68V21.112C35.0002 20.72 35.2802 20.44 35.6722 20.44H41.9442C42.1682 20.44 42.3922 20.552 42.5042 20.72L47.2082 27.104C47.3202 27.216 47.3202 27.384 47.3202 27.496V29.68Z" fill="white"/>
<path d="M17.0242 36.1761C13.8882 36.1761 11.3682 38.6961 11.3682 41.8321C11.3682 44.9681 13.8882 47.4881 17.0242 47.4881C20.1602 47.4881 22.6802 44.9681 22.6802 41.8321C22.6802 38.6961 20.1042 36.1761 17.0242 36.1761ZM17.0242 44.2961C15.6802 44.2961 14.5602 43.1761 14.5602 41.8321C14.5602 40.4881 15.6242 39.3681 17.0242 39.3681C18.3682 39.3681 19.4882 40.4881 19.4882 41.8321C19.4322 43.1761 18.3682 44.2961 17.0242 44.2961ZM38.5282 36.1761C35.3922 36.1761 32.8722 38.6961 32.8722 41.8321C32.8722 44.9681 35.3922 47.4881 38.5282 47.4881C41.6642 47.4881 44.1842 44.9681 44.1842 41.8321C44.1842 38.6961 41.6642 36.1761 38.5282 36.1761ZM38.5282 44.2961C37.1842 44.2961 36.0642 43.1761 36.0642 41.8321C36.0642 40.4881 37.1282 39.3681 38.5282 39.3681C39.8722 39.3681 40.9922 40.4881 40.9922 41.8321C40.9922 43.1761 39.8722 44.2961 38.5282 44.2961ZM3.47217 16.4081C3.47217 18.0881 4.03217 19.6561 4.92817 20.9441C6.32817 22.9601 8.68017 24.2481 11.3682 24.2481C15.6802 24.2481 19.2642 20.7201 19.2642 16.3521C19.2642 14.3361 18.4802 12.4881 17.2482 11.0881C15.7922 9.46405 13.7202 8.45605 11.4242 8.45605C7.00017 8.51205 3.47217 12.0401 3.47217 16.4081ZM10.5842 12.3201C10.5842 11.9281 10.9202 11.5361 11.3682 11.5361C11.8162 11.5361 12.1522 11.8721 12.1522 12.3201V15.4001C12.1522 15.5121 12.2082 15.5681 12.3202 15.5681H13.9442C14.3922 15.5681 14.7282 15.9041 14.7282 16.3521C14.7282 16.8001 14.3922 17.1361 13.9442 17.1361H10.8082C10.6962 17.1361 10.6402 17.0801 10.6402 16.9681V12.3201H10.5842Z" fill="white"/>
</svg>
